<svg xmlns="http://www.w3.org/2000/svg" viewBox="0 0 1024 1024" width="256" height="256">
  <path d="M475,128 L401,142 L330,172 L273,209 L218,262 L177,321 L147,388 L130,464 L128,548 L140,613 L163,676 L200,739 L260,804 L311,841 L394,879 L475,895 L559,894 L617,883 L703,847 L766,802 L820,744 L858,682 L884,613 L895,553 L894,465 L879,396 L847,322 L807,264 L751,209 L698,174 L617,141 L548,128Z" fill="#026f77" stroke="none" />
  <path d="M0,0 L0,1023 L1023,1023 L1023,0Z" fill="#039098" stroke="none" />
  <path d="M556,723 L553,726 L552,726 L552,727 L551,728 L551,735 L552,736 L552,737 L555,740 L556,740 L557,741 L561,741 L562,740 L564,740 L567,737 L567,736 L568,735 L568,729 L567,728 L567,727 L564,724 L563,724 L562,723Z" fill="#dff5f9" stroke="none" />
  <path d="M490,720 L489,721 L488,721 L485,724 L485,725 L484,726 L484,730 L485,731 L485,733 L487,735 L488,735 L489,736 L494,736 L495,735 L496,735 L499,732 L499,730 L500,729 L500,728 L499,727 L499,725 L498,724 L498,723 L497,722 L496,722 L495,721 L494,721 L493,720Z" fill="#dff5f9" stroke="none" />
  <path d="M567,708 L566,709 L565,709 L565,710 L564,711 L564,715 L566,717 L570,717 L571,716 L572,716 L572,710 L571,709 L570,709 L569,708Z" fill="#dff5f9" stroke="none" />
  <path d="M628,707 L627,708 L627,709 L626,710 L626,715 L627,716 L627,717 L628,717 L629,718 L633,718 L634,717 L635,717 L636,716 L636,714 L637,713 L636,712 L636,710 L633,707Z" fill="#dff5f9" stroke="none" />
  <path d="M506,704 L505,705 L504,705 L503,706 L503,708 L502,709 L502,712 L503,713 L503,714 L504,715 L505,715 L506,716 L509,716 L510,715 L511,715 L513,713 L513,707 L511,705 L510,705 L509,704Z" fill="#dff5f9" stroke="none" />
  <path d="M554,700 L553,701 L552,701 L550,703 L550,709 L552,711 L556,711 L557,710 L558,710 L559,709 L559,704 L556,701 L555,701Z" fill="#dff5f9" stroke="none" />
  <path d="M529,700 L528,701 L527,701 L524,704 L524,705 L523,706 L523,711 L524,712 L524,713 L527,716 L534,716 L537,713 L537,712 L538,711 L538,706 L537,705 L537,704 L535,702 L534,702 L533,701 L530,701Z" fill="#dff5f9" stroke="none" />
  <path d="M587,693 L585,695 L584,695 L584,696 L583,697 L583,704 L584,705 L584,706 L585,707 L586,707 L587,708 L593,708 L596,705 L596,703 L597,702 L597,699 L596,698 L596,696 L595,695 L594,695 L593,694 L592,694 L591,693Z" fill="#dff5f9" stroke="none" />
  <path d="M462,692 L462,693 L460,695 L460,696 L459,697 L459,701 L460,702 L460,703 L462,705 L463,705 L464,706 L465,706 L466,707 L467,707 L468,708 L472,708 L476,704 L476,699 L475,698 L475,697 L474,696 L474,695 L473,694 L472,694 L471,693 L470,693 L469,692Z" fill="#dff5f9" stroke="none" />
  <path d="M415,689 L413,691 L413,695 L415,697 L416,697 L417,698 L418,698 L419,697 L420,697 L421,696 L421,695 L422,694 L422,692 L421,691 L421,690 L420,689Z" fill="#dff5f9" stroke="none" />
  <path d="M456,689 L454,687 L449,687 L447,689 L447,690 L446,691 L445,691 L444,690 L443,690 L442,689 L436,689 L435,690 L434,690 L432,692 L432,693 L431,694 L431,701 L432,702 L432,703 L435,706 L437,706 L438,707 L441,707 L442,706 L444,706 L446,704 L446,703 L447,702 L447,700 L448,699 L448,695 L449,694 L450,694 L451,695 L452,695 L453,696 L453,695 L455,693 L455,692 L456,691Z" fill="#dff5f9" stroke="none" />
  <path d="M664,686 L663,687 L662,687 L661,688 L661,689 L660,690 L660,693 L662,695 L662,696 L663,696 L664,697 L666,697 L667,696 L669,696 L669,695 L671,693 L671,690 L670,689 L670,688 L669,687 L668,687 L667,686Z" fill="#dff5f9" stroke="none" />
  <path d="M554,682 L554,683 L553,684 L553,686 L554,686 L555,687 L554,688 L553,688 L553,693 L555,695 L556,694 L559,694 L559,693 L560,692 L561,693 L562,693 L561,693 L560,692 L560,690 L559,689 L559,686 L560,685 L561,685 L558,682Z" fill="#dff5f9" stroke="none" />
  <path d="M533,678 L531,678 L530,679 L528,679 L528,680 L527,681 L526,680 L525,681 L525,682 L523,684 L523,689 L525,691 L525,692 L527,694 L535,694 L536,693 L537,693 L540,690 L540,689 L541,688 L541,685 L540,684 L540,683 L539,682 L538,682 L535,679 L534,679Z" fill="#dff5f9" stroke="none" />
  <path d="M428,674 L427,675 L427,676 L426,677 L426,680 L427,681 L427,682 L433,682 L434,681 L434,680 L435,679 L436,679 L436,676 L434,674Z" fill="#dff5f9" stroke="none" />
  <path d="M373,673 L371,675 L371,681 L372,681 L374,683 L377,683 L379,681 L380,681 L380,675 L379,674 L378,674 L377,673Z" fill="#dff5f9" stroke="none" />
  <path d="M642,671 L637,671 L636,672 L634,672 L632,674 L632,677 L631,678 L631,679 L632,680 L631,681 L627,681 L626,682 L625,682 L623,684 L623,685 L622,686 L622,689 L623,690 L623,691 L627,695 L629,695 L630,694 L631,694 L632,693 L633,693 L634,692 L634,690 L635,689 L635,686 L634,685 L635,684 L636,684 L637,685 L641,685 L642,684 L643,684 L644,683 L644,682 L645,681 L645,679 L646,678 L645,677 L645,674Z" fill="#dff5f9" stroke="none" />
  <path d="M575,669 L574,669 L574,670 L573,671 L573,673 L574,674 L574,677 L575,678 L575,679 L574,680 L575,679 L576,680 L576,682 L578,684 L578,686 L577,687 L576,686 L576,685 L575,684 L574,685 L573,685 L571,683 L570,683 L567,686 L567,694 L569,696 L574,696 L581,689 L581,688 L580,687 L581,686 L582,686 L582,682 L583,681 L583,680 L582,679 L582,675 L581,674 L580,674 L579,673 L578,673 L577,672 L576,672 L575,671Z" fill="#dff5f9" stroke="none" />
  <path d="M499,669 L498,670 L497,670 L497,673 L496,674 L495,673 L495,674 L496,675 L495,676 L495,679 L496,680 L496,681 L497,682 L497,685 L504,685 L508,681 L508,680 L509,679 L509,676 L508,675 L508,672 L505,669Z" fill="#dff5f9" stroke="none" />
  <path d="M394,669 L393,670 L391,670 L390,671 L390,672 L388,674 L388,680 L389,681 L389,682 L391,684 L392,684 L393,685 L397,685 L398,684 L399,684 L402,681 L402,680 L403,679 L403,676 L402,675 L402,674 L401,673 L401,672 L400,671 L399,671 L398,670 L397,670 L396,669Z" fill="#dff5f9" stroke="none" />
  <path d="M662,666 L656,666 L655,667 L654,667 L652,669 L652,670 L651,671 L651,675 L652,676 L652,677 L653,678 L653,679 L654,680 L655,680 L656,681 L658,681 L659,682 L660,681 L662,681 L663,680 L664,680 L665,679 L665,678 L666,677 L666,676 L667,675 L667,671 L665,669 L665,668 L664,667 L663,667Z" fill="#dff5f9" stroke="none" />
  <path d="M614,662 L614,664 L613,665 L613,670 L614,671 L614,672 L615,671 L616,672 L616,673 L617,673 L618,674 L619,674 L619,672 L618,671 L618,669 L619,668 L619,666 L620,665 L621,666 L621,673 L623,675 L625,673 L627,673 L629,671 L629,669 L630,668 L630,667 L629,666 L629,664 L626,661 L622,661 L621,662Z" fill="#dff5f9" stroke="none" />
  <path d="M410,660 L410,661 L408,663 L408,665 L410,667 L409,668 L410,669 L410,670 L412,672 L418,672 L419,671 L420,671 L420,669 L421,668 L421,664 L420,663 L420,662 L417,659 L412,659 L411,660Z" fill="#dff5f9" stroke="none" />
  <path d="M484,656 L480,656 L479,657 L478,657 L477,658 L475,658 L470,663 L470,672 L471,673 L471,674 L474,677 L475,677 L476,678 L479,678 L480,679 L481,679 L482,678 L485,678 L487,676 L488,676 L488,675 L489,674 L489,673 L490,672 L490,668 L491,667 L491,666 L490,665 L490,662 L488,660 L488,659 L487,658 L486,658Z" fill="#dff5f9" stroke="none" />
  <path d="M592,655 L593,656 L593,657 L592,658 L592,659 L591,660 L590,660 L589,661 L589,664 L590,665 L590,667 L593,670 L594,670 L595,671 L596,670 L599,670 L600,671 L599,672 L598,672 L601,672 L601,671 L602,670 L603,670 L605,668 L605,663 L604,662 L604,660 L601,657 L598,657 L596,655Z" fill="#dff5f9" stroke="none" />
  <path d="M641,650 L641,651 L639,653 L639,654 L638,655 L638,661 L640,663 L641,663 L642,664 L646,664 L647,663 L648,663 L649,662 L649,661 L650,660 L650,659 L651,658 L651,656 L650,655 L650,654 L649,653 L649,652 L647,652 L646,651 L645,651 L644,650 L643,651 L642,651Z" fill="#dff5f9" stroke="none" />
  <path d="M683,647 L678,652 L678,659 L679,660 L679,661 L681,663 L682,663 L683,664 L688,664 L693,659 L693,653 L692,652 L692,651 L689,648 L687,648 L686,647Z" fill="#dff5f9" stroke="none" />
  <path d="M464,646 L463,646 L462,645 L461,645 L460,644 L459,644 L458,645 L454,645 L453,646 L453,648 L452,649 L451,648 L449,650 L448,650 L447,651 L444,651 L444,652 L445,653 L446,653 L448,655 L448,657 L450,659 L450,660 L453,663 L455,663 L456,662 L457,662 L458,663 L462,663 L466,659 L466,658 L468,656 L468,652 L466,650 L466,648Z" fill="#dff5f9" stroke="none" />
  <path d="M360,643 L357,646 L356,646 L356,647 L355,648 L355,654 L356,655 L356,656 L358,658 L360,658 L361,659 L365,659 L367,657 L368,657 L369,656 L369,655 L370,654 L370,649 L369,648 L369,647 L368,646 L368,645 L367,645 L365,643Z" fill="#dff5f9" stroke="none" />
  <path d="M498,644 L497,645 L497,649 L498,650 L498,651 L500,651 L501,652 L502,652 L504,654 L505,654 L506,655 L508,655 L509,656 L509,660 L510,660 L510,657 L512,655 L516,655 L516,652 L515,652 L514,651 L512,651 L510,649 L510,644 L508,642 L507,642 L506,641 L505,642 L503,642 L502,643 L501,643 L500,644Z" fill="#dff5f9" stroke="none" />
  <path d="M394,640 L393,641 L393,642 L392,643 L392,645 L391,646 L391,647 L392,648 L392,649 L394,649 L395,650 L396,650 L397,651 L398,651 L401,654 L404,654 L404,646 L399,641 L398,641 L397,640Z" fill="#dff5f9" stroke="none" />
  <path d="M735,630 L734,631 L733,631 L731,633 L731,634 L730,635 L730,642 L731,643 L731,644 L733,646 L741,646 L742,645 L743,645 L744,644 L744,643 L745,642 L745,634 L742,631 L740,631 L739,630Z" fill="#dff5f9" stroke="none" />
  <path d="M495,630 L490,630 L488,632 L488,635 L489,636 L489,637 L487,639 L481,639 L481,640 L480,641 L479,641 L478,642 L478,644 L479,645 L478,646 L478,648 L479,649 L479,650 L480,651 L480,652 L481,652 L482,653 L486,653 L487,652 L489,652 L489,651 L490,650 L490,649 L491,648 L491,647 L492,646 L493,647 L494,647 L495,646 L493,644 L492,644 L489,641 L489,639 L490,638 L491,638 L492,637 L493,637 L494,636 L495,636 L495,635 L496,634 L496,633 L497,632Z" fill="#dff5f9" stroke="none" />
  <path d="M700,627 L699,628 L698,628 L696,630 L696,635 L698,637 L703,637 L705,635 L705,634 L706,633 L706,632 L705,631 L705,629 L704,628 L703,628 L702,627Z" fill="#dff5f9" stroke="none" />
  <path d="M647,622 L647,623 L646,624 L646,625 L645,626 L645,631 L647,633 L653,633 L653,632 L654,631 L654,624 L653,623 L651,623 L650,622Z" fill="#dff5f9" stroke="none" />
  <path d="M418,622 L417,623 L415,623 L414,624 L414,626 L413,627 L413,634 L414,635 L414,636 L415,637 L416,637 L417,638 L419,638 L420,639 L421,638 L424,638 L429,633 L429,627 L428,626 L427,626 L426,625 L426,624 L425,623 L421,623 L420,622Z" fill="#dff5f9" stroke="none" />
  <path d="M395,614 L395,615 L389,621 L388,621 L387,622 L387,628 L391,628 L392,629 L390,627 L392,625 L394,625 L398,629 L398,631 L399,631 L399,627 L398,626 L398,623 L397,622 L397,621 L396,620 L396,619 L395,618Z" fill="#dff5f9" stroke="none" />
  <path d="M350,603 L347,606 L347,610 L346,611 L346,613 L349,613 L350,614 L351,614 L352,615 L357,615 L359,613 L359,612 L362,609 L362,608 L361,607 L361,606 L360,605 L360,604 L359,604 L358,603Z" fill="#dff5f9" stroke="none" />
  <path d="M556,601 L557,602 L557,603 L558,604 L558,605 L559,606 L562,606 L563,605 L564,605 L564,604 L565,603 L565,601 L566,600 L564,598 L559,598Z" fill="#dff5f9" stroke="none" />
  <path d="M321,596 L320,597 L319,597 L317,599 L317,600 L316,601 L316,608 L317,609 L317,610 L319,612 L320,612 L321,613 L325,613 L326,612 L328,612 L331,609 L331,608 L332,607 L332,603 L331,602 L331,601 L330,600 L330,599 L328,597 L327,597 L326,596Z" fill="#dff5f9" stroke="none" />
  <path d="M338,593 L336,595 L336,601 L339,604 L341,604 L342,605 L344,605 L345,604 L346,604 L347,603 L347,602 L348,601 L348,598 L347,597 L347,595 L345,593 L344,593 L343,592 L341,592 L340,593Z" fill="#dff5f9" stroke="none" />
  <path d="M698,584 L694,584 L693,583 L690,584 L686,589 L686,598 L684,600 L680,600 L679,602 L677,601 L676,598 L677,597 L676,595 L677,591 L676,588 L681,585 L681,579 L680,580 L677,579 L671,583 L671,590 L670,591 L667,587 L663,586 L662,589 L659,592 L654,592 L653,591 L652,592 L655,596 L654,599 L663,599 L664,600 L667,599 L669,601 L668,603 L670,604 L669,606 L671,606 L673,604 L675,605 L672,609 L675,610 L679,609 L680,610 L680,612 L678,614 L674,614 L671,618 L670,625 L666,630 L666,638 L658,640 L655,642 L655,648 L660,652 L664,652 L667,649 L669,642 L677,643 L681,640 L683,632 L680,627 L681,626 L681,615 L683,613 L686,613 L692,620 L697,620 L699,618 L703,617 L709,623 L713,623 L718,619 L719,614 L718,611 L714,607 L710,607 L707,609 L705,607 L705,605 L699,601 L702,597 L703,590Z" fill="#dff5f9" stroke="none" />
  <path d="M323,579 L320,582 L320,586 L321,587 L321,588 L322,588 L323,589 L326,589 L327,588 L328,588 L329,587 L329,582 L326,579Z" fill="#dff5f9" stroke="none" />
  <path d="M746,569 L745,570 L744,570 L743,571 L742,571 L741,572 L741,573 L740,574 L740,581 L742,583 L742,584 L743,584 L744,585 L751,585 L754,582 L754,581 L755,580 L755,574 L753,572 L753,571 L752,571 L751,570 L749,570 L748,569Z" fill="#dff5f9" stroke="none" />
  <path d="M332,568 L329,571 L329,576 L331,578 L333,578 L334,579 L335,579 L336,578 L337,578 L338,577 L338,575 L339,574 L339,572 L338,571 L338,570 L337,569 L336,569 L335,568Z" fill="#dff5f9" stroke="none" />
  <path d="M724,551 L723,552 L723,553 L722,554 L722,556 L721,557 L721,559 L722,560 L722,561 L723,562 L723,563 L724,563 L725,564 L728,564 L729,563 L730,563 L730,562 L731,561 L732,561 L732,560 L733,559 L733,557 L732,556 L732,554 L729,551Z" fill="#dff5f9" stroke="none" />
  <path d="M322,548 L321,549 L320,549 L320,550 L319,551 L319,553 L318,554 L318,559 L319,560 L319,561 L321,563 L322,563 L323,564 L328,564 L329,563 L330,563 L332,561 L332,560 L334,558 L334,553 L332,551 L332,550 L331,550 L329,548Z" fill="#dff5f9" stroke="none" />
  <path d="M303,542 L304,543 L304,545 L303,546 L303,547 L304,548 L305,548 L307,550 L307,552 L308,553 L307,554 L306,554 L308,554 L308,553 L309,552 L310,552 L311,553 L312,553 L313,552 L313,550 L312,549 L313,548 L314,548 L314,547 L313,546 L313,544 L311,544 L310,543 L311,542 L312,542 L311,542 L310,541 L306,541 L305,542Z" fill="#dff5f9" stroke="none" />
  <path d="M385,526 L384,527 L384,528 L383,529 L383,531 L384,532 L384,534 L385,535 L389,535 L391,533 L391,529 L390,528 L390,527 L389,527 L388,526Z" fill="#dff5f9" stroke="none" />
  <path d="M662,515 L661,518 L662,525 L668,529 L672,528 L674,533 L684,532 L687,536 L694,538 L702,530 L706,531 L708,535 L713,539 L705,546 L705,548 L696,556 L696,558 L691,563 L689,561 L690,554 L683,548 L677,549 L675,554 L679,558 L680,564 L682,566 L689,565 L690,566 L689,568 L691,569 L691,572 L694,575 L695,574 L699,576 L702,575 L704,577 L703,580 L707,587 L713,588 L719,583 L718,573 L723,571 L721,568 L719,568 L717,566 L717,563 L712,558 L720,550 L718,542 L713,539 L720,537 L724,533 L724,526 L719,520 L721,518 L721,509 L717,506 L711,507 L712,509 L711,510 L710,509 L708,518 L706,518 L702,513 L693,514 L691,518 L685,523 L683,527 L681,523 L676,523 L671,515 L668,514Z" fill="#dff5f9" stroke="none" />
  <path d="M738,504 L736,506 L736,507 L735,508 L735,515 L739,519 L745,519 L746,518 L747,518 L749,516 L749,514 L750,513 L750,511 L749,510 L749,508 L748,507 L748,506 L746,504Z" fill="#dff5f9" stroke="none" />
  <path d="M300,504 L298,506 L298,511 L299,512 L305,512 L306,511 L306,506 L304,504Z" fill="#dff5f9" stroke="none" />
  <path d="M317,503 L316,504 L315,504 L312,507 L312,513 L313,514 L313,515 L316,518 L318,518 L319,519 L321,519 L322,518 L323,518 L325,516 L326,516 L326,515 L327,514 L327,512 L328,511 L328,510 L327,509 L327,507 L326,506 L326,505 L325,504 L322,504 L321,503Z" fill="#dff5f9" stroke="none" />
  <path d="M723,489 L722,490 L721,490 L720,491 L719,491 L719,492 L717,494 L717,500 L718,501 L718,502 L722,506 L726,506 L727,505 L728,505 L730,503 L730,502 L731,501 L731,494 L727,490 L725,490 L724,489Z" fill="#dff5f9" stroke="none" />
  <path d="M308,485 L307,486 L306,486 L304,488 L304,489 L303,490 L303,492 L304,493 L304,494 L306,496 L311,496 L313,494 L313,493 L314,492 L314,488 L313,487 L313,486 L312,486 L311,485Z" fill="#dff5f9" stroke="none" />
  <path d="M277,485 L276,486 L274,486 L273,487 L272,487 L271,488 L271,489 L270,490 L270,492 L269,493 L269,494 L270,495 L269,496 L270,497 L270,498 L271,499 L271,500 L272,500 L274,502 L276,502 L277,503 L280,503 L281,502 L282,502 L285,499 L285,498 L286,497 L286,496 L287,495 L287,493 L286,492 L286,491 L285,490 L285,489 L282,486 L280,486 L279,485Z" fill="#dff5f9" stroke="none" />
  <path d="M386,482 L386,483 L385,484 L385,487 L387,489 L389,489 L390,490 L392,490 L395,487 L395,486 L394,485 L394,483 L393,483 L392,482 L391,482 L390,481 L389,481 L388,482Z" fill="#dff5f9" stroke="none" />
  <path d="M777,478 L776,479 L775,479 L775,480 L774,481 L774,482 L773,483 L774,484 L774,486 L776,488 L777,488 L778,489 L779,489 L780,488 L782,488 L783,487 L783,485 L784,484 L784,483 L783,482 L783,480 L782,479 L781,479 L780,478Z" fill="#dff5f9" stroke="none" />
  <path d="M736,454 L734,454 L733,453 L732,453 L732,454 L731,455 L730,454 L729,454 L730,455 L727,458 L726,457 L726,463 L727,462 L728,463 L728,464 L727,465 L728,465 L729,466 L735,466 L735,465 L736,464 L737,465 L737,462 L739,460 L739,459 L738,458 L738,456Z" fill="#dff5f9" stroke="none" />
  <path d="M543,443 L537,444 L540,456 L532,451 L531,445 L527,446 L531,449 L528,454 L521,447 L516,448 L514,456 L499,453 L501,459 L484,466 L478,474 L476,495 L469,504 L475,518 L473,523 L496,543 L503,541 L487,533 L481,509 L484,498 L508,476 L513,479 L513,474 L519,477 L523,473 L546,476 L546,482 L557,480 L554,488 L561,488 L558,483 L562,482 L566,493 L576,492 L573,502 L583,506 L580,510 L584,514 L577,514 L575,521 L584,520 L582,524 L591,537 L583,547 L589,554 L586,558 L589,564 L586,573 L578,577 L581,588 L572,594 L573,602 L567,603 L565,611 L557,611 L541,625 L534,624 L539,633 L536,637 L524,639 L518,633 L511,639 L520,645 L524,641 L525,647 L533,649 L517,662 L524,675 L534,672 L535,658 L541,655 L546,660 L541,666 L543,672 L553,674 L555,665 L551,662 L556,655 L567,660 L571,641 L580,645 L591,638 L596,642 L597,635 L605,633 L599,622 L603,617 L618,614 L616,607 L620,600 L617,593 L609,591 L621,582 L620,592 L629,591 L631,576 L624,569 L637,558 L622,545 L625,541 L622,535 L632,532 L622,521 L627,510 L619,507 L615,512 L609,495 L598,497 L601,491 L598,486 L610,470 L606,467 L600,476 L592,476 L586,464 L578,462 L573,467 L568,455 L554,458 L544,450Z" fill="#dff5f9" stroke="none" />
  <path d="M739,441 L738,442 L738,444 L737,445 L737,446 L740,449 L745,449 L745,447 L746,446 L746,444 L745,443 L745,442 L744,441Z" fill="#dff5f9" stroke="none" />
  <path d="M321,431 L320,432 L318,432 L314,436 L314,437 L313,438 L313,444 L315,446 L315,447 L316,447 L318,449 L325,449 L326,448 L327,448 L328,447 L328,446 L330,444 L330,442 L331,441 L331,440 L330,439 L330,436 L326,432 L322,432Z" fill="#dff5f9" stroke="none" />
  <path d="M705,428 L704,429 L704,430 L703,431 L703,432 L702,433 L702,438 L704,440 L704,441 L705,441 L706,442 L707,442 L708,443 L714,443 L717,440 L717,438 L718,437 L718,433 L717,432 L717,431 L716,430 L716,429 L715,429 L713,427 L707,427 L706,428Z" fill="#dff5f9" stroke="none" />
  <path d="M321,414 L319,414 L318,415 L317,415 L315,417 L315,420 L318,423 L320,423 L323,420 L323,416Z" fill="#dff5f9" stroke="none" />
  <path d="M722,406 L721,407 L720,407 L719,408 L719,409 L718,410 L718,414 L719,415 L719,416 L720,417 L721,417 L722,418 L726,418 L729,415 L729,410 L728,409 L728,408 L727,407 L726,407 L725,406Z" fill="#dff5f9" stroke="none" />
  <path d="M670,389 L668,389 L667,390 L666,390 L665,389 L663,389 L661,391 L661,395 L660,396 L660,398 L661,399 L661,400 L660,401 L662,403 L662,404 L663,404 L664,405 L665,405 L666,404 L668,404 L670,402 L671,402 L671,401 L672,400 L673,400 L673,399 L674,398 L674,393 L673,392 L673,391 L672,390 L671,390Z" fill="#dff5f9" stroke="none" />
  <path d="M709,390 L705,386 L700,386 L699,387 L698,387 L695,390 L695,392 L694,393 L694,395 L695,396 L695,397 L696,398 L694,400 L693,399 L693,398 L690,395 L683,395 L682,396 L682,397 L679,400 L679,403 L677,405 L676,404 L676,402 L676,404 L681,409 L684,409 L685,410 L687,410 L688,409 L689,409 L690,408 L691,408 L692,407 L692,406 L693,405 L694,405 L695,406 L695,407 L699,411 L704,411 L706,409 L707,409 L707,408 L708,407 L708,406 L709,405 L709,404 L708,403 L708,401 L707,400 L707,399 L708,398 L708,397 L709,396Z" fill="#dff5f9" stroke="none" />
  <path d="M350,385 L349,386 L348,386 L344,390 L344,395 L345,396 L345,397 L346,398 L346,399 L347,400 L348,400 L350,402 L354,402 L355,401 L357,401 L359,399 L359,398 L360,397 L360,395 L361,394 L361,393 L360,392 L360,390 L359,389 L359,388 L357,386 L356,386 L355,385Z" fill="#dff5f9" stroke="none" />
  <path d="M758,374 L757,375 L756,375 L755,376 L755,382 L757,384 L761,384 L762,383 L763,383 L764,382 L764,377 L762,375 L761,375 L760,374Z" fill="#dff5f9" stroke="none" />
  <path d="M662,370 L662,372 L661,373 L661,376 L662,377 L662,378 L663,379 L663,380 L666,383 L668,383 L669,384 L672,384 L674,382 L675,382 L677,380 L677,374 L676,373 L676,371 L673,368 L666,368 L665,369 L664,369 L663,370Z" fill="#dff5f9" stroke="none" />
  <path d="M680,353 L679,354 L678,354 L675,357 L675,364 L676,364 L678,366 L683,366 L684,365 L685,365 L686,364 L686,363 L687,362 L687,356 L685,354 L684,354 L683,353Z" fill="#dff5f9" stroke="none" />
  <path d="M366,353 L364,353 L363,354 L361,354 L360,355 L359,355 L359,356 L357,358 L357,365 L358,366 L358,367 L361,370 L367,370 L368,369 L369,369 L371,367 L371,366 L372,365 L372,358 L368,354 L367,354Z" fill="#dff5f9" stroke="none" />
  <path d="M661,347 L659,347 L657,349 L656,349 L654,351 L654,358 L655,358 L657,360 L658,360 L659,361 L660,361 L661,360 L662,360 L666,356 L666,352 L665,351 L665,349 L663,349Z" fill="#dff5f9" stroke="none" />
  <path d="M505,347 L504,347 L503,346 L501,346 L500,347 L498,347 L497,348 L497,349 L496,350 L496,354 L498,356 L503,356 L504,355 L505,355 L505,354 L506,353 L506,349 L505,348Z" fill="#dff5f9" stroke="none" />
  <path d="M377,346 L377,348 L376,349 L375,349 L375,351 L376,351 L377,352 L377,354 L378,354 L379,355 L379,356 L383,356 L385,354 L385,353 L386,352 L386,350 L384,350 L384,351 L383,352 L382,352 L380,350 L380,349 L379,349 L378,348 L378,347Z" fill="#dff5f9" stroke="none" />
  <path d="M394,348 L394,354 L395,355 L395,356 L396,357 L404,357 L405,358 L405,359 L406,359 L408,361 L412,361 L412,356 L411,355 L410,355 L407,352 L407,351 L408,350 L408,347 L405,344 L398,344Z" fill="#dff5f9" stroke="none" />
  <path d="M486,343 L485,344 L484,344 L484,348 L483,349 L482,348 L482,346 L482,350 L483,350 L484,351 L484,352 L485,353 L486,353 L487,352 L488,352 L489,353 L489,354 L490,353 L490,352 L491,351 L491,346 L490,346 L488,344 L487,345 L486,345 L485,344Z" fill="#dff5f9" stroke="none" />
  <path d="M645,358 L635,364 L642,383 L636,404 L619,391 L632,352 L619,352 L609,379 L593,369 L600,363 L593,353 L583,373 L577,361 L591,342 L568,345 L577,360 L566,368 L523,339 L518,354 L526,361 L517,371 L507,359 L486,365 L479,379 L474,367 L454,371 L456,383 L412,406 L417,430 L406,437 L409,448 L396,460 L404,467 L393,474 L404,494 L391,495 L399,505 L388,518 L393,525 L400,514 L407,518 L399,539 L423,549 L421,556 L432,561 L428,569 L443,568 L453,588 L459,580 L478,592 L484,585 L498,591 L502,584 L508,590 L540,580 L538,566 L548,564 L554,543 L541,508 L542,539 L531,555 L490,569 L441,540 L447,526 L434,519 L440,489 L432,482 L458,426 L471,424 L481,410 L487,419 L495,405 L491,423 L498,425 L508,413 L506,400 L519,411 L547,392 L554,414 L572,411 L577,397 L583,415 L605,411 L595,416 L596,428 L617,421 L624,440 L634,429 L637,449 L655,452 L660,467 L676,452 L677,468 L653,478 L676,479 L682,488 L670,492 L671,500 L682,504 L687,497 L694,507 L713,492 L709,475 L723,462 L703,459 L695,481 L689,466 L702,443 L680,441 L699,423 L691,417 L670,433 L679,412 L658,409 L647,384 L657,382 L657,372Z" fill="#dff5f9" stroke="none" />
  <path d="M490,331 L491,331 L492,332 L491,333 L489,333 L489,334 L488,335 L487,334 L487,338 L489,340 L490,340 L491,341 L493,341 L494,340 L494,339 L495,338 L496,338 L496,334 L493,331Z" fill="#dff5f9" stroke="none" />
  <path d="M668,329 L666,331 L666,332 L665,333 L665,335 L666,336 L666,337 L668,339 L673,339 L676,336 L676,332 L673,329Z" fill="#dff5f9" stroke="none" />
  <path d="M636,328 L634,330 L633,330 L633,331 L632,332 L632,333 L631,334 L631,339 L634,342 L634,343 L635,343 L636,344 L641,344 L645,340 L645,339 L646,338 L646,332 L645,331 L645,330 L644,329 L643,329 L642,328Z" fill="#dff5f9" stroke="none" />
  <path d="M597,331 L597,333 L596,334 L596,335 L597,336 L597,338 L598,339 L598,340 L599,341 L600,341 L601,342 L603,342 L604,343 L605,343 L607,341 L608,341 L609,340 L610,340 L612,342 L612,343 L615,346 L620,346 L621,345 L622,345 L624,343 L624,342 L625,341 L625,338 L624,337 L624,335 L622,333 L621,333 L620,332 L616,332 L614,334 L613,334 L611,332 L611,330 L609,328 L608,328 L607,327 L600,327 L599,328 L599,329Z" fill="#dff5f9" stroke="none" />
  <path d="M411,328 L408,331 L408,332 L407,333 L407,338 L408,339 L408,340 L411,343 L413,343 L414,344 L416,344 L417,343 L420,343 L421,342 L421,341 L423,339 L423,338 L424,337 L424,334 L423,333 L423,331 L420,328 L419,328 L418,327 L413,327 L412,328Z" fill="#dff5f9" stroke="none" />
  <path d="M707,322 L703,326 L703,327 L702,328 L702,335 L703,336 L703,337 L706,340 L708,340 L709,341 L713,341 L714,340 L717,340 L720,337 L720,335 L721,334 L721,329 L720,328 L720,326 L717,323 L716,323 L715,322 L714,322 L713,321 L710,321 L709,322Z" fill="#dff5f9" stroke="none" />
  <path d="M440,315 L437,318 L437,322 L438,323 L438,324 L441,327 L444,327 L445,326 L446,327 L446,334 L447,335 L448,335 L449,336 L453,336 L454,335 L455,335 L455,334 L457,332 L457,330 L456,329 L456,327 L455,326 L453,326 L452,325 L448,325 L447,324 L448,323 L448,317 L446,315 L445,315 L444,314 L443,314 L442,315Z" fill="#dff5f9" stroke="none" />
  <path d="M612,309 L611,310 L610,310 L608,312 L608,316 L611,319 L615,319 L617,317 L617,311 L616,310 L614,310 L613,309Z" fill="#dff5f9" stroke="none" />
  <path d="M509,311 L508,310 L507,310 L506,309 L503,309 L502,310 L504,312 L504,314 L502,316 L500,316 L497,313 L497,316 L496,317 L495,316 L495,315 L493,315 L493,319 L492,320 L491,319 L489,319 L488,318 L488,317 L487,318 L487,319 L486,320 L485,319 L485,317 L485,320 L486,321 L486,322 L487,321 L489,321 L490,322 L489,323 L490,324 L496,324 L497,325 L498,325 L502,321 L503,321 L504,320 L506,320 L506,318 L508,316 L509,316Z" fill="#dff5f9" stroke="none" />
  <path d="M524,307 L522,307 L521,308 L519,308 L516,311 L516,316 L519,319 L520,319 L521,320 L522,320 L523,319 L525,319 L525,318 L528,315 L528,311Z" fill="#dff5f9" stroke="none" />
  <path d="M368,306 L367,307 L367,312 L368,313 L369,313 L370,314 L372,314 L374,312 L374,311 L375,310 L375,309 L374,308 L374,307 L373,306Z" fill="#dff5f9" stroke="none" />
  <path d="M471,305 L470,306 L469,306 L468,307 L468,308 L467,309 L467,312 L469,314 L474,314 L475,313 L475,312 L476,311 L476,308 L474,306 L473,306 L472,305Z" fill="#dff5f9" stroke="none" />
  <path d="M554,304 L552,306 L552,307 L551,308 L551,310 L550,311 L550,313 L551,314 L551,316 L555,320 L556,320 L557,321 L561,321 L562,320 L564,320 L568,316 L568,308 L567,307 L567,306 L565,304 L564,304 L563,303 L556,303 L555,304Z" fill="#dff5f9" stroke="none" />
  <path d="M456,296 L455,297 L454,297 L453,298 L452,298 L451,299 L451,302 L452,303 L452,304 L454,306 L457,306 L458,305 L459,305 L460,304 L460,299 L458,297 L457,297Z" fill="#dff5f9" stroke="none" />
  <path d="M588,290 L584,294 L584,301 L588,305 L594,305 L595,304 L596,304 L599,301 L599,294 L595,290Z" fill="#dff5f9" stroke="none" />
  <path d="M555,286 L554,287 L553,287 L552,288 L552,293 L554,295 L557,295 L558,294 L559,294 L560,293 L560,288 L559,287 L558,287 L557,286Z" fill="#dff5f9" stroke="none" />
  <path d="M441,286 L440,287 L440,292 L441,293 L441,294 L442,294 L443,295 L448,295 L450,293 L450,288 L447,285 L443,285 L442,286Z" fill="#dff5f9" stroke="none" />
  <path d="M500,246 L499,247 L498,247 L494,251 L494,252 L493,253 L493,260 L495,262 L495,263 L496,264 L497,264 L499,266 L501,266 L502,267 L504,267 L505,266 L507,266 L512,261 L512,259 L513,258 L513,255 L512,254 L512,252 L511,251 L511,250 L508,247 L506,247 L505,246Z" fill="#dff5f9" stroke="none" />
  <path d="M509,752 L508,753 L505,753 L502,756 L502,757 L501,758 L501,762 L502,763 L502,764 L504,766 L506,766 L507,767 L511,767 L512,766 L513,766 L514,765 L514,764 L515,763 L515,762 L516,761 L516,758 L515,757 L515,756 L512,753 L510,753Z" fill="#69cad5" stroke="none" />
  <path d="M491,748 L491,749 L490,750 L490,755 L491,756 L493,756 L494,757 L495,756 L496,756 L497,755 L497,750 L495,748Z" fill="#69cad5" stroke="none" />
  <path d="M453,733 L453,734 L452,735 L452,740 L455,743 L460,743 L462,741 L463,741 L463,735 L460,732 L455,732 L454,733Z" fill="#69cad5" stroke="none" />
  <path d="M436,732 L434,732 L433,731 L431,733 L430,732 L429,733 L428,733 L427,734 L427,735 L426,736 L426,741 L427,742 L427,743 L428,744 L429,744 L430,745 L435,745 L436,744 L437,744 L439,742 L439,741 L440,740 L440,737 L439,736 L439,735Z" fill="#69cad5" stroke="none" />
  <path d="M660,716 L658,718 L658,723 L659,724 L665,724 L665,722 L666,721 L666,719 L665,718 L664,718 L662,716Z" fill="#69cad5" stroke="none" />
  <path d="M405,715 L405,716 L403,718 L403,720 L402,721 L402,722 L403,723 L403,724 L406,727 L410,727 L411,726 L412,726 L413,725 L413,723 L414,722 L414,718 L411,715Z" fill="#69cad5" stroke="none" />
  <path d="M424,706 L421,709 L421,713 L424,716 L426,716 L427,715 L428,715 L429,714 L429,713 L430,712 L430,709 L427,706Z" fill="#69cad5" stroke="none" />
  <path d="M459,704 L457,706 L456,706 L455,707 L455,714 L459,718 L463,718 L464,717 L465,717 L466,716 L466,715 L467,714 L467,710 L468,709 L471,709 L468,709 L467,708 L466,708 L465,707 L464,707 L463,706 L462,706 L460,704Z" fill="#69cad5" stroke="none" />
  <path d="M604,703 L602,705 L602,707 L601,708 L602,709 L602,710 L604,712 L608,712 L610,710 L610,705 L608,703Z" fill="#69cad5" stroke="none" />
  <path d="M678,696 L676,698 L676,703 L677,704 L678,704 L679,705 L683,705 L684,704 L684,703 L685,702 L685,700 L684,699 L684,697 L683,696Z" fill="#69cad5" stroke="none" />
  <path d="M397,691 L396,692 L394,692 L391,695 L391,701 L395,705 L398,705 L399,704 L401,704 L403,702 L403,699 L404,698 L403,697 L403,695 L400,692 L398,692Z" fill="#69cad5" stroke="none" />
  <path d="M352,681 L351,682 L350,682 L349,683 L349,684 L347,686 L347,692 L348,693 L348,694 L351,697 L353,697 L354,698 L356,698 L357,697 L359,697 L362,694 L362,693 L363,692 L363,687 L362,686 L362,685 L359,682 L358,682 L357,681Z" fill="#69cad5" stroke="none" />
  <path d="M610,677 L609,677 L608,678 L606,678 L604,680 L604,681 L603,682 L603,687 L606,690 L607,690 L608,691 L609,691 L610,690 L612,690 L615,687 L615,681 L612,678 L611,678Z" fill="#69cad5" stroke="none" />
  <path d="M372,672 L370,674 L370,676 L369,677 L369,678 L370,679 L370,681 L373,684 L378,684 L381,681 L381,675 L378,672Z" fill="#69cad5" stroke="none" />
  <path d="M337,647 L335,649 L335,650 L334,651 L334,652 L333,653 L333,654 L334,655 L334,657 L337,660 L338,660 L339,661 L344,661 L347,658 L347,657 L348,656 L348,651 L347,650 L347,649 L345,647 L344,647 L343,646 L340,646 L339,647Z" fill="#69cad5" stroke="none" />
  <path d="M353,628 L352,629 L351,629 L351,630 L350,631 L350,634 L351,635 L351,636 L352,637 L356,637 L357,636 L358,636 L358,635 L359,634 L359,632 L358,631 L358,630 L357,629 L356,629 L355,628Z" fill="#69cad5" stroke="none" />
  <path d="M313,624 L312,625 L312,626 L310,628 L310,629 L311,630 L311,632 L312,633 L312,634 L313,634 L314,635 L320,635 L321,634 L321,632 L322,631 L322,630 L323,629 L323,628 L321,626 L321,625 L320,625 L319,624Z" fill="#69cad5" stroke="none" />
  <path d="M754,618 L753,619 L753,620 L752,621 L752,624 L755,627 L759,627 L761,625 L761,624 L762,623 L762,622 L761,621 L761,620 L759,618Z" fill="#69cad5" stroke="none" />
  <path d="M686,614 L683,614 L682,615 L682,626 L681,627 L683,629 L683,631 L684,632 L684,634 L683,635 L683,638 L682,639 L682,640 L680,642 L679,642 L678,643 L679,642 L680,642 L682,640 L682,639 L684,637 L685,638 L688,638 L689,637 L690,637 L692,635 L692,630 L691,629 L691,628 L690,627 L689,627 L688,626 L684,626 L683,625 L683,622 L682,621 L682,615 L683,614Z" fill="#69cad5" stroke="none" />
  <path d="M337,614 L334,617 L334,620 L335,621 L335,622 L336,623 L341,623 L341,622 L343,620 L343,619 L342,618 L342,616 L341,615 L341,614Z" fill="#69cad5" stroke="none" />
  <path d="M733,604 L731,606 L731,610 L733,612 L736,612 L737,611 L738,611 L738,610 L739,609 L739,606 L737,604Z" fill="#69cad5" stroke="none" />
  <path d="M286,599 L285,600 L286,601 L286,602 L285,603 L284,603 L283,602 L283,601 L283,602 L282,603 L282,606 L281,607 L281,609 L282,610 L282,612 L284,614 L285,614 L286,615 L287,615 L288,616 L292,616 L295,613 L296,613 L297,612 L296,612 L294,610 L294,609 L295,608 L295,607 L296,606 L297,606 L295,604 L295,602 L293,600 L291,600 L290,599Z" fill="#69cad5" stroke="none" />
  <path d="M652,593 L653,602 L651,605 L651,609 L652,611 L659,613 L662,619 L666,619 L669,622 L669,625 L667,627 L660,621 L655,623 L654,622 L655,615 L648,614 L645,609 L638,610 L635,615 L632,614 L628,616 L621,616 L618,622 L618,628 L622,629 L625,627 L628,628 L626,630 L626,635 L628,639 L633,641 L635,643 L634,646 L640,650 L635,657 L638,663 L641,665 L646,665 L651,661 L652,655 L649,649 L652,644 L656,650 L655,656 L659,655 L660,653 L663,653 L660,653 L654,648 L654,643 L653,645 L649,637 L646,635 L653,634 L657,629 L660,633 L665,635 L664,638 L659,639 L665,638 L665,630 L669,625 L670,618 L674,613 L679,612 L679,610 L678,611 L672,610 L671,608 L674,605 L669,607 L667,600 L666,601 L668,608 L676,612 L672,614 L666,610 L662,602 L663,600 L654,600 L653,599 L654,596Z" fill="#69cad5" stroke="none" />
  <path d="M451,592 L450,593 L450,598 L451,599 L451,600 L452,600 L453,601 L454,600 L457,600 L459,598 L459,595 L458,594 L458,592Z" fill="#69cad5" stroke="none" />
  <path d="M644,588 L630,586 L630,573 L627,594 L619,592 L621,583 L610,591 L617,592 L621,600 L619,614 L600,622 L606,633 L598,635 L596,643 L591,639 L580,646 L571,642 L567,656 L579,652 L589,657 L588,667 L594,672 L585,677 L580,672 L581,660 L573,660 L569,672 L565,665 L568,659 L560,661 L558,656 L552,662 L556,665 L553,675 L542,672 L543,658 L539,665 L536,658 L537,669 L523,675 L527,677 L523,682 L517,669 L511,674 L507,669 L532,651 L524,642 L520,646 L510,639 L518,632 L524,638 L536,636 L533,624 L565,610 L571,598 L557,597 L555,604 L546,606 L548,616 L536,615 L532,625 L522,625 L508,641 L502,633 L508,621 L503,623 L502,633 L491,629 L484,619 L480,625 L488,636 L471,647 L490,661 L484,655 L495,648 L494,662 L502,667 L491,678 L495,694 L487,694 L485,703 L493,704 L495,694 L499,698 L512,694 L517,702 L525,694 L539,692 L546,699 L549,691 L573,697 L566,694 L566,686 L570,682 L577,686 L574,668 L584,680 L575,696 L584,686 L592,689 L598,684 L595,672 L609,667 L622,675 L620,666 L619,675 L613,672 L614,661 L626,660 L631,667 L627,674 L633,656 L619,661 L620,646 L609,647 L599,637 L614,627 L619,612 L627,609 L621,595 L630,593 L639,607 L646,607Z" fill="#69cad5" stroke="none" />
  <path d="M585,570 L585,572 L584,573 L582,573 L581,574 L580,574 L576,578 L575,578 L575,579 L574,580 L573,580 L571,578 L570,578 L569,577 L568,577 L567,578 L565,578 L565,579 L564,580 L564,582 L565,583 L565,584 L567,584 L568,585 L569,585 L570,586 L573,586 L574,587 L574,588 L570,592 L571,593 L571,596 L571,594 L574,591 L575,591 L576,590 L577,590 L578,589 L579,589 L580,588 L580,586 L579,585 L578,585 L577,584 L577,577 L580,574 L581,574 L582,573 L585,573Z" fill="#69cad5" stroke="none" />
  <path d="M269,563 L269,564 L268,565 L268,566 L267,567 L267,571 L268,572 L267,571 L267,570 L268,569 L271,569 L272,570 L276,570 L277,571 L276,572 L271,572 L271,574 L276,574 L278,572 L278,569 L279,568 L279,566 L276,563 L275,564 L274,564 L273,563 L273,562 L271,562 L270,563Z" fill="#69cad5" stroke="none" />
  <path d="M714,560 L715,561 L716,561 L718,563 L718,566 L719,567 L721,567 L723,569 L723,570 L724,571 L723,572 L721,572 L720,573 L719,573 L719,575 L720,576 L720,582 L720,580 L721,579 L725,579 L725,578 L726,577 L726,572 L725,571 L725,569 L722,566 L721,566 L719,564 L719,563 L718,562 L717,562 L716,561 L715,561Z" fill="#69cad5" stroke="none" />
  <path d="M335,554 L329,564 L334,563 L328,571 L331,579 L337,579 L344,590 L355,586 L357,594 L367,591 L371,600 L382,599 L383,604 L373,605 L367,615 L359,602 L348,602 L345,616 L351,624 L365,621 L363,631 L368,635 L375,633 L376,642 L386,645 L384,655 L388,661 L399,663 L410,650 L406,649 L419,639 L412,634 L413,624 L425,622 L430,627 L430,633 L421,639 L427,639 L426,648 L415,647 L414,656 L407,662 L411,672 L407,665 L409,660 L417,658 L422,668 L420,672 L413,673 L420,672 L424,666 L430,670 L425,681 L432,685 L438,680 L446,687 L432,691 L454,686 L457,691 L449,698 L458,693 L458,686 L462,689 L459,696 L462,691 L469,691 L476,698 L484,694 L485,686 L481,682 L475,683 L471,690 L469,688 L473,677 L469,663 L479,656 L469,663 L468,672 L461,670 L469,652 L460,639 L467,635 L476,638 L480,633 L477,628 L468,630 L465,624 L458,624 L453,633 L442,632 L438,622 L444,618 L441,609 L433,612 L423,607 L418,610 L410,603 L402,611 L402,601 L392,598 L390,590 L377,584 L381,578 L386,586 L392,586 L397,580 L395,571 L374,569 L367,579 L361,578 L356,583 L352,573 L361,572 L362,565 L357,562 L352,567 L347,555 L336,557Z" fill="#69cad5" stroke="none" />
  <path d="M782,553 L779,556 L779,559 L782,562 L786,562 L788,560 L788,559 L789,558 L789,557 L788,556 L788,555 L787,554 L786,554 L785,553Z" fill="#69cad5" stroke="none" />
  <path d="M394,549 L394,551 L395,552 L395,553 L397,553 L398,554 L399,553 L401,553 L404,550 L404,549 L402,547 L401,547 L400,546 L396,546 L395,547 L395,548Z" fill="#69cad5" stroke="none" />
  <path d="M357,547 L357,548 L356,549 L356,550 L355,551 L355,554 L356,555 L356,557 L357,558 L357,559 L358,559 L359,560 L360,560 L361,561 L363,561 L364,562 L365,561 L366,561 L367,562 L367,563 L369,565 L373,565 L372,564 L372,563 L373,562 L374,562 L374,561 L375,560 L376,560 L376,558 L375,557 L374,557 L373,558 L372,558 L371,557 L371,552 L370,551 L370,549 L367,546 L359,546 L358,547Z" fill="#69cad5" stroke="none" />
  <path d="M407,542 L407,547 L406,548 L407,553 L409,555 L414,555 L415,554 L416,555 L415,560 L419,565 L417,567 L418,574 L421,576 L425,576 L426,577 L425,578 L426,581 L430,583 L433,583 L440,575 L445,581 L439,583 L438,585 L438,589 L441,593 L445,593 L449,588 L456,589 L459,585 L466,597 L470,598 L474,592 L477,592 L478,593 L477,598 L479,601 L483,598 L482,597 L483,593 L487,595 L490,595 L492,592 L497,592 L493,592 L490,589 L490,587 L485,589 L484,586 L483,590 L481,592 L478,593 L477,592 L473,592 L471,590 L470,586 L471,584 L466,589 L461,589 L459,581 L458,587 L456,589 L451,588 L449,586 L449,581 L450,580 L446,581 L441,577 L444,572 L444,570 L440,569 L438,571 L440,573 L438,575 L431,573 L427,569 L427,564 L431,562 L430,563 L429,561 L428,562 L425,561 L420,556 L420,554 L423,553 L424,551 L423,550 L419,550 L414,544 L409,544Z" fill="#69cad5" stroke="none" />
  <path d="M742,541 L739,544 L739,546 L738,547 L738,550 L739,551 L739,552 L741,554 L742,554 L743,555 L749,555 L752,552 L752,550 L753,549 L753,547 L752,546 L752,544 L749,541Z" fill="#69cad5" stroke="none" />
  <path d="M287,543 L287,550 L288,551 L288,552 L289,553 L297,553 L296,552 L298,550 L299,551 L299,552 L301,554 L302,554 L303,555 L304,555 L305,556 L309,556 L310,555 L311,555 L312,554 L313,554 L314,553 L314,552 L315,551 L315,544 L314,543 L314,542 L313,542 L311,540 L304,540 L303,541 L302,541 L301,542 L299,542 L297,540 L297,539 L292,539 L291,540 L290,540 L289,541 L288,541 L288,542Z" fill="#69cad5" stroke="none" />
  <path d="M741,526 L740,527 L740,531 L742,533 L747,533 L748,532 L748,528 L745,525 L743,525 L742,526Z" fill="#69cad5" stroke="none" />
  <path d="M726,514 L725,515 L725,521 L727,523 L730,523 L731,522 L732,522 L732,520 L733,519 L733,518 L732,517 L732,515 L731,514Z" fill="#69cad5" stroke="none" />
  <path d="M364,515 L363,516 L363,523 L366,526 L372,526 L373,525 L373,523 L374,522 L374,519 L371,516 L371,515 L369,515 L368,514 L367,514 L366,515Z" fill="#69cad5" stroke="none" />
  <path d="M471,512 L471,513 L470,514 L470,516 L473,519 L473,520 L472,521 L472,523 L474,525 L475,525 L476,526 L476,527 L475,528 L479,532 L479,537 L482,540 L484,540 L484,538 L483,537 L484,536 L486,536 L488,539 L490,539 L492,541 L490,543 L488,543 L487,542 L486,543 L487,544 L490,544 L490,543 L492,541 L493,541 L496,544 L498,544 L498,543 L499,542 L500,542 L502,544 L504,544 L504,543 L505,542 L508,543 L510,541 L511,541 L514,538 L516,538 L516,536 L510,540 L508,540 L507,539 L506,539 L504,541 L503,540 L503,539 L502,539 L504,541 L504,543 L503,544 L502,544 L500,542 L498,542 L498,543 L497,544 L496,544 L494,542 L494,540 L493,541 L492,541 L491,540 L491,539 L489,539 L486,536 L484,536 L481,533 L480,533 L479,532 L479,530 L478,530 L476,528 L476,526 L475,525 L474,525 L472,523 L472,521 L474,519 L474,518 L473,518 L470,515Z" fill="#69cad5" stroke="none" />
  <path d="M544,511 L548,514 L547,516 L548,518 L552,519 L551,525 L555,528 L555,533 L552,537 L554,539 L555,543 L553,546 L550,546 L553,550 L553,554 L547,558 L549,560 L549,564 L546,567 L539,566 L540,570 L538,573 L541,575 L541,580 L538,582 L535,582 L531,578 L527,583 L523,583 L521,585 L517,584 L514,589 L512,588 L508,591 L504,591 L502,589 L502,585 L502,587 L499,591 L501,592 L496,595 L495,600 L500,604 L504,603 L506,594 L512,598 L517,597 L522,590 L521,586 L523,584 L525,585 L528,590 L532,590 L534,587 L534,584 L531,582 L530,583 L529,581 L531,579 L535,582 L539,582 L541,580 L540,573 L543,569 L545,570 L543,572 L543,574 L545,576 L547,576 L550,572 L549,568 L547,567 L549,566 L549,559 L548,558 L554,553 L556,553 L557,551 L559,550 L560,551 L557,548 L555,548 L554,551 L552,548 L555,544 L555,539 L553,538 L554,536 L556,537 L555,528 L552,525 L552,519 L549,518 L547,516 L548,514Z" fill="#69cad5" stroke="none" />
  <path d="M322,523 L322,524 L321,525 L321,532 L322,533 L322,534 L323,534 L325,536 L329,536 L330,537 L330,538 L329,539 L329,544 L331,546 L335,546 L335,545 L337,543 L337,539 L333,535 L336,532 L336,530 L338,528 L339,529 L341,529 L342,530 L343,530 L344,531 L344,534 L345,534 L346,535 L348,535 L349,536 L351,536 L352,537 L351,538 L349,538 L346,543 L344,541 L346,539 L346,538 L345,538 L344,539 L343,538 L342,539 L342,541 L346,545 L353,545 L355,543 L355,539 L354,538 L354,536 L353,536 L352,537 L351,536 L351,535 L352,534 L354,534 L355,533 L358,532 L362,527 L362,526 L361,525 L361,521 L358,518 L351,518 L350,519 L349,519 L347,517 L346,514 L345,514 L341,511 L339,511 L338,512 L337,512 L334,515 L334,516 L333,517 L333,520 L332,521 L331,520 L326,520Z" fill="#69cad5" stroke="none" />
  <path d="M396,509 L396,511 L395,512 L391,512 L388,514 L388,515 L387,516 L387,518 L388,519 L388,521 L391,525 L390,526 L389,526 L388,525 L385,525 L383,527 L383,528 L381,531 L380,530 L380,529 L380,531 L379,532 L380,533 L380,534 L379,535 L379,537 L380,537 L380,535 L381,534 L383,534 L385,536 L389,536 L390,535 L391,535 L391,534 L392,533 L392,529 L390,526 L391,525 L392,525 L393,526 L396,525 L398,527 L398,531 L396,533 L395,533 L395,537 L398,541 L404,541 L405,540 L406,540 L405,539 L404,539 L402,541 L401,540 L399,540 L397,537 L397,535 L396,535 L395,534 L400,531 L401,531 L402,532 L402,531 L404,529 L404,525 L402,523 L402,522 L403,521 L404,521 L406,519 L406,518 L405,517 L403,517 L399,514 L401,517 L401,520 L400,521 L400,522 L397,525 L395,525 L394,526 L393,526 L389,522 L389,521 L387,518 L389,516 L389,514 L390,513 L391,513 L392,512 L393,513 L396,512Z" fill="#69cad5" stroke="none" />
  <path d="M625,484 L625,485 L624,486 L624,487 L623,488 L623,490 L624,491 L624,493 L625,493 L627,495 L628,495 L629,494 L633,494 L636,491 L636,486 L633,483 L627,483 L626,484Z" fill="#69cad5" stroke="none" />
  <path d="M762,482 L760,482 L759,483 L757,483 L757,484 L756,485 L756,489 L757,490 L760,490 L761,491 L762,490 L763,490 L764,489 L764,488 L765,487 L764,486 L764,484Z" fill="#69cad5" stroke="none" />
  <path d="M433,482 L435,481 L433,484 L439,486 L441,489 L441,492 L437,497 L440,501 L440,506 L435,510 L437,515 L435,519 L436,521 L441,521 L443,525 L448,526 L448,529 L444,531 L445,534 L442,540 L451,545 L454,542 L457,542 L461,546 L458,552 L462,554 L464,559 L465,557 L467,559 L470,557 L478,560 L479,564 L481,562 L487,562 L490,568 L492,568 L495,563 L502,566 L507,562 L509,564 L516,564 L518,559 L522,560 L527,554 L530,555 L531,551 L535,549 L535,545 L539,543 L542,534 L542,519 L540,513 L537,511 L539,504 L535,503 L533,499 L529,501 L526,498 L522,499 L519,497 L515,499 L516,500 L520,499 L532,504 L542,519 L541,539 L537,540 L539,543 L535,545 L534,550 L530,551 L530,554 L527,554 L524,558 L522,556 L521,560 L517,558 L516,562 L511,561 L510,564 L507,562 L503,566 L495,563 L490,568 L487,561 L479,562 L479,559 L471,558 L468,553 L460,553 L460,544 L454,542 L453,535 L448,533 L451,526 L436,517 L437,511 L440,515 L444,515 L445,511 L440,508 L441,504 L447,500 L447,496 L445,494 L442,495 L442,489Z" fill="#69cad5" stroke="none" />
  <path d="M369,478 L368,479 L368,480 L367,481 L367,485 L368,486 L368,487 L370,489 L374,489 L377,486 L377,485 L378,484 L378,482 L376,480 L376,479 L375,479 L374,478Z" fill="#69cad5" stroke="none" />
  <path d="M521,475 L521,476 L519,478 L517,478 L514,475 L513,475 L514,476 L514,479 L513,480 L511,480 L508,477 L507,478 L507,479 L504,482 L503,482 L502,483 L500,483 L499,484 L499,485 L497,487 L496,487 L495,488 L494,488 L494,489 L493,490 L492,490 L490,492 L490,494 L489,495 L490,496 L489,497 L486,497 L485,498 L485,500 L484,501 L484,502 L485,503 L484,504 L485,503 L484,502 L484,501 L485,500 L485,499 L487,497 L490,497 L490,492 L492,490 L494,492 L495,492 L496,491 L494,489 L495,488 L496,488 L497,487 L498,487 L500,484 L501,484 L503,482 L504,482 L505,481 L506,481 L507,482 L505,484 L505,485 L506,486 L508,486 L509,485 L509,481 L510,480 L511,480 L512,481 L515,481 L517,478 L520,478 L520,477 L521,476Z" fill="#69cad5" stroke="none" />
  <path d="M523,474 L524,478 L528,479 L531,483 L536,484 L538,482 L535,479 L535,477 L537,476 L541,481 L543,481 L548,485 L552,484 L555,491 L559,491 L563,489 L565,494 L571,494 L573,492 L575,493 L572,496 L571,500 L569,497 L564,498 L563,503 L569,506 L571,503 L574,505 L572,510 L577,511 L574,516 L574,521 L576,523 L580,523 L584,529 L579,531 L577,534 L579,538 L580,537 L583,543 L586,542 L587,543 L581,548 L581,551 L584,554 L580,558 L581,564 L579,566 L576,565 L575,568 L577,569 L579,567 L580,569 L581,568 L580,566 L582,564 L585,565 L584,567 L588,564 L585,558 L588,554 L582,549 L582,547 L588,544 L586,539 L590,537 L590,535 L586,533 L587,528 L583,527 L581,524 L584,521 L581,521 L579,523 L576,523 L574,521 L574,516 L577,513 L581,515 L583,514 L579,510 L582,506 L580,504 L576,505 L572,502 L572,496 L575,494 L575,492 L571,494 L566,494 L562,487 L562,483 L559,483 L557,481 L554,483 L547,482 L546,483 L545,482 L546,477 L541,479 L538,476 L532,478 L528,475Z" fill="#69cad5" stroke="none" />
  <path d="M361,472 L358,472 L356,474 L356,475 L354,477 L354,478 L353,479 L349,479 L348,480 L343,480 L340,482 L340,484 L339,485 L339,489 L337,491 L336,491 L336,492 L335,493 L333,493 L331,495 L331,496 L330,497 L330,499 L329,500 L329,501 L330,502 L331,505 L333,507 L334,507 L335,508 L340,508 L343,505 L343,504 L345,502 L347,505 L347,507 L351,511 L352,511 L353,512 L352,513 L356,513 L359,510 L360,510 L361,509 L361,504 L362,503 L361,502 L361,501 L360,501 L358,499 L357,499 L356,498 L354,498 L353,497 L351,497 L348,499 L347,499 L346,498 L348,495 L348,493 L351,490 L353,490 L355,488 L355,487 L356,486 L356,482 L357,481 L358,481 L359,482 L359,483 L361,483 L363,481 L363,480 L364,479 L364,475Z" fill="#69cad5" stroke="none" />
  <path d="M733,471 L732,472 L732,473 L731,474 L731,479 L735,483 L741,483 L744,480 L744,473 L742,471 L741,471 L740,470 L735,470 L734,471Z" fill="#69cad5" stroke="none" />
  <path d="M313,464 L311,464 L310,463 L309,463 L308,464 L306,464 L303,467 L303,468 L302,469 L301,469 L300,470 L300,471 L298,473 L298,476 L299,477 L299,479 L300,479 L301,480 L302,480 L303,481 L306,481 L307,480 L308,480 L309,481 L310,481 L311,480 L313,480 L314,479 L315,479 L315,478 L317,476 L317,469 L316,468 L316,467Z" fill="#69cad5" stroke="none" />
  <path d="M702,459 L698,463 L697,463 L696,464 L694,462 L694,460 L694,461 L693,462 L693,463 L690,466 L690,469 L691,470 L692,470 L694,472 L694,473 L695,474 L695,476 L696,477 L696,481 L698,481 L698,480 L701,477 L701,476 L700,476 L698,474 L698,472 L697,471 L697,466 L698,465 L698,463 L700,461 L701,461 L702,460Z" fill="#69cad5" stroke="none" />
  <path d="M738,454 L735,452 L730,452 L729,453 L728,453 L725,456 L725,457 L724,458 L724,460 L723,461 L720,458 L715,458 L711,462 L710,461 L709,461 L707,459 L705,459 L704,458 L704,459 L706,459 L707,460 L708,460 L710,462 L712,462 L712,461 L715,458 L720,458 L724,462 L724,468 L720,472 L719,471 L718,472 L716,472 L715,471 L713,471 L712,472 L712,473 L710,475 L710,476 L712,478 L710,476 L710,475 L712,473 L712,472 L713,471 L715,471 L716,472 L720,472 L723,470 L723,469 L724,468 L724,467 L726,465 L728,467 L729,467 L730,468 L734,468 L735,467 L737,467 L739,465 L739,464 L740,463 L740,457 L738,455Z" fill="#69cad5" stroke="none" />
  <path d="M504,450 L506,452 L506,453 L506,452 L504,450 L501,450 L499,451 L498,453 L498,456 L497,457 L494,455 L489,455 L485,460 L483,459 L484,457 L481,454 L482,453 L482,451 L480,452 L480,453 L482,455 L482,459 L481,461 L483,462 L484,464 L481,468 L480,467 L480,465 L477,464 L474,467 L474,470 L475,471 L474,472 L475,473 L475,475 L476,474 L477,475 L477,478 L476,479 L473,479 L472,480 L470,480 L467,482 L470,486 L473,486 L474,487 L474,488 L471,490 L467,490 L467,492 L466,493 L466,495 L471,500 L468,503 L468,507 L470,510 L471,510 L469,509 L468,507 L468,504 L471,501 L471,499 L475,495 L473,491 L476,488 L476,482 L477,481 L477,477 L478,476 L477,474 L479,472 L481,472 L482,471 L482,467 L484,465 L490,465 L491,463 L496,459 L498,459 L499,460 L500,458 L498,456 L498,453 L502,450Z" fill="#69cad5" stroke="none" />
  <path d="M764,449 L762,451 L762,456 L763,457 L764,457 L765,458 L768,458 L770,456 L770,454 L771,453 L771,452 L770,451 L770,450 L769,449Z" fill="#69cad5" stroke="none" />
  <path d="M328,448 L327,449 L326,449 L325,450 L319,450 L320,450 L321,451 L320,452 L320,455 L321,456 L322,456 L323,457 L326,457 L327,456 L328,456 L328,455 L329,454 L329,452 L328,451 L328,450 L327,449Z" fill="#69cad5" stroke="none" />
  <path d="M512,436 L509,441 L514,444 L507,446 L506,449 L511,453 L507,456 L514,455 L517,446 L521,446 L524,452 L526,450 L528,453 L530,449 L526,446 L531,444 L533,451 L540,455 L541,452 L537,450 L536,444 L543,442 L546,444 L545,450 L550,451 L554,457 L568,454 L573,466 L578,461 L586,463 L592,470 L592,475 L600,475 L600,471 L606,466 L611,470 L610,476 L603,478 L599,486 L602,491 L600,494 L603,494 L599,497 L609,494 L615,502 L615,505 L612,505 L615,511 L619,506 L628,510 L623,521 L633,528 L633,532 L623,535 L626,539 L623,545 L628,546 L632,555 L637,557 L625,569 L627,571 L625,569 L628,565 L635,567 L636,572 L641,576 L634,575 L639,579 L649,576 L646,565 L640,565 L639,558 L632,553 L639,545 L646,543 L649,535 L644,530 L639,531 L636,536 L632,534 L633,526 L638,524 L640,519 L632,515 L630,508 L632,499 L630,497 L621,499 L619,481 L612,476 L609,468 L612,460 L608,457 L601,461 L596,458 L592,459 L587,449 L580,450 L576,454 L569,442 L560,446 L558,442 L552,443 L550,439 L547,441 L550,445 L547,450 L542,437 L533,438 L537,450 L535,451 L532,444 L528,443 L523,448 L514,444Z" fill="#69cad5" stroke="none" />
  <path d="M459,434 L458,435 L458,436 L457,437 L457,438 L455,440 L454,440 L453,441 L452,440 L451,441 L448,441 L448,444 L449,445 L449,447 L450,448 L450,452 L449,453 L448,453 L448,454 L447,455 L446,455 L443,457 L441,457 L441,458 L443,460 L443,461 L444,462 L444,467 L439,471 L438,471 L437,472 L436,472 L438,475 L438,476 L436,479 L438,477 L439,478 L439,481 L441,481 L442,482 L444,482 L446,480 L446,478 L444,476 L440,476 L439,477 L438,476 L438,475 L437,474 L437,473 L438,472 L439,472 L439,471 L444,467 L444,463 L445,462 L446,462 L447,463 L448,463 L449,462 L452,462 L453,461 L453,460 L454,459 L454,457 L453,456 L453,454 L455,452 L456,452 L457,451 L457,450 L459,447 L459,446 L457,444 L457,443 L456,442 L456,439 L457,438 L457,437Z" fill="#69cad5" stroke="none" />
  <path d="M778,432 L777,433 L777,434 L776,435 L776,437 L777,438 L777,439 L778,439 L779,440 L781,440 L782,439 L783,439 L783,438 L784,437 L784,434 L782,432Z" fill="#69cad5" stroke="none" />
  <path d="M717,430 L718,431 L718,432 L719,433 L719,437 L718,438 L718,440 L714,444 L708,444 L707,443 L706,443 L705,442 L704,442 L703,441 L703,440 L701,438 L701,434 L701,437 L700,438 L699,437 L698,437 L699,437 L701,439 L701,440 L702,441 L702,442 L703,443 L703,447 L702,448 L702,449 L699,452 L703,448 L704,449 L704,453 L706,455 L707,455 L708,456 L711,456 L712,455 L713,455 L715,453 L715,447 L714,446 L714,444 L718,440 L718,438 L719,437 L719,433 L718,432 L718,431Z" fill="#69cad5" stroke="none" />
  <path d="M363,428 L359,426 L354,426 L351,428 L350,430 L350,432 L348,434 L347,434 L346,432 L343,430 L338,430 L335,432 L334,434 L334,439 L335,440 L335,442 L338,445 L338,446 L335,448 L335,450 L334,451 L334,454 L333,455 L333,458 L329,461 L329,465 L331,467 L330,468 L328,468 L326,469 L322,474 L322,479 L326,484 L330,486 L335,486 L336,485 L336,481 L337,480 L339,480 L339,477 L338,476 L339,474 L342,476 L345,476 L346,477 L350,477 L351,476 L351,474 L352,473 L352,470 L353,469 L352,467 L353,466 L356,466 L357,465 L356,466 L351,466 L347,463 L349,462 L352,458 L352,452 L348,447 L347,445 L347,443 L348,442 L353,447 L355,448 L363,448 L365,447 L367,444 L367,436 L365,433 L365,430Z" fill="#69cad5" stroke="none" />
  <path d="M579,430 L579,433 L580,434 L580,435 L581,436 L581,437 L582,437 L583,438 L584,438 L585,439 L586,439 L587,438 L589,438 L590,439 L590,440 L588,442 L587,442 L587,444 L588,445 L590,445 L589,444 L590,443 L591,443 L592,444 L592,445 L593,444 L593,443 L591,443 L590,442 L590,441 L591,440 L596,440 L597,439 L601,439 L600,438 L600,437 L601,436 L602,437 L603,436 L602,436 L601,435 L601,434 L598,434 L597,433 L597,434 L594,437 L592,435 L592,429 L591,428 L591,427 L590,427 L589,426 L586,426 L585,425 L583,425 L580,428 L580,429Z" fill="#69cad5" stroke="none" />
  <path d="M608,421 L604,429 L597,429 L604,429 L610,422 L607,436 L624,442 L621,448 L624,456 L642,453 L632,464 L634,468 L645,467 L641,475 L652,484 L648,488 L649,496 L655,499 L652,511 L660,516 L653,520 L655,530 L662,529 L663,540 L653,550 L643,548 L642,560 L650,562 L656,555 L667,557 L672,551 L668,542 L672,532 L676,544 L681,543 L683,533 L690,539 L684,547 L675,550 L676,562 L670,560 L664,564 L662,570 L669,577 L667,585 L658,577 L649,583 L652,591 L659,591 L663,585 L670,590 L670,583 L681,578 L678,601 L684,599 L687,586 L697,583 L694,581 L701,576 L706,586 L702,576 L694,576 L689,566 L679,564 L674,552 L685,548 L691,554 L691,562 L691,556 L695,558 L709,541 L701,547 L696,539 L699,535 L694,539 L684,533 L674,534 L672,529 L661,525 L661,515 L671,514 L683,526 L693,513 L702,512 L708,517 L711,506 L725,507 L717,502 L716,495 L719,504 L706,510 L707,517 L699,509 L700,500 L706,496 L706,502 L711,501 L711,494 L703,495 L699,502 L692,504 L696,505 L694,508 L687,498 L682,505 L674,505 L669,492 L681,485 L676,480 L669,484 L661,475 L658,482 L652,478 L655,473 L673,466 L668,465 L671,459 L664,467 L654,465 L655,453 L645,455 L636,449 L632,441 L634,430 L629,440 L622,440 L620,425Z" fill="#69cad5" stroke="none" />
  <path d="M414,417 L411,420 L410,420 L409,419 L403,419 L403,420 L402,421 L402,422 L401,423 L401,425 L400,426 L400,429 L401,430 L401,431 L404,434 L406,434 L407,435 L406,436 L408,434 L409,434 L413,430 L416,430 L415,429 L415,428 L414,427 L414,426 L412,424 L412,423 L411,422 L411,420Z" fill="#69cad5" stroke="none" />
  <path d="M370,417 L367,420 L367,425 L368,426 L368,427 L369,428 L370,428 L371,429 L374,429 L375,428 L376,428 L378,426 L378,424 L379,423 L379,422 L378,421 L378,419 L377,418 L376,418 L375,417Z" fill="#69cad5" stroke="none" />
  <path d="M300,407 L298,409 L298,410 L297,411 L297,413 L296,414 L296,416 L297,417 L297,418 L299,420 L300,420 L301,421 L306,421 L307,420 L308,420 L311,417 L311,411 L307,407Z" fill="#69cad5" stroke="none" />
  <path d="M497,406 L495,406 L494,407 L493,407 L491,409 L491,412 L493,414 L493,415 L492,416 L491,416 L487,420 L486,420 L481,415 L483,413 L484,414 L484,415 L484,414 L483,413 L483,411 L481,411 L481,412 L480,413 L480,415 L481,416 L480,417 L476,417 L475,416 L476,417 L476,418 L474,420 L472,420 L473,421 L473,422 L471,425 L470,425 L468,427 L466,427 L465,428 L463,428 L461,426 L460,426 L461,426 L466,430 L465,431 L465,432 L462,435 L461,435 L460,436 L460,438 L459,439 L459,442 L461,444 L463,444 L464,445 L465,444 L467,444 L469,442 L469,441 L470,440 L470,438 L469,437 L468,434 L469,433 L470,433 L471,434 L475,434 L478,431 L478,429 L480,427 L481,427 L482,426 L484,426 L485,425 L485,424 L487,422 L490,421 L490,419 L491,418 L494,417 L494,415 L493,414 L493,413 L494,412 L494,411 L497,408Z" fill="#69cad5" stroke="none" />
  <path d="M337,401 L335,403 L335,404 L333,406 L333,410 L332,411 L333,412 L333,413 L336,416 L338,416 L339,417 L340,416 L343,416 L344,415 L345,415 L347,413 L347,410 L348,409 L348,407 L347,406 L347,405 L344,402 L343,402 L342,401Z" fill="#69cad5" stroke="none" />
  <path d="M373,400 L371,400 L370,399 L369,400 L367,400 L366,401 L365,401 L365,402 L364,403 L364,408 L363,409 L362,408 L361,408 L360,407 L358,407 L357,408 L355,408 L353,410 L353,411 L352,412 L352,417 L354,419 L354,420 L355,420 L357,422 L358,422 L359,421 L363,421 L366,418 L366,417 L368,415 L369,415 L370,414 L372,414 L373,413 L376,413 L376,412 L377,411 L377,405 L376,404 L376,403Z" fill="#69cad5" stroke="none" />
  <path d="M321,396 L321,397 L320,398 L320,402 L321,403 L321,404 L322,404 L323,405 L325,405 L326,404 L328,404 L330,402 L330,399 L329,398 L329,397 L327,395 L323,395 L322,396Z" fill="#69cad5" stroke="none" />
  <path d="M513,409 L516,409 L518,411 L519,415 L524,419 L529,419 L535,413 L536,408 L534,406 L536,404 L538,404 L541,410 L541,412 L539,415 L539,418 L541,418 L542,420 L545,421 L549,416 L548,410 L553,404 L554,406 L552,409 L552,413 L555,416 L560,416 L564,412 L568,413 L570,415 L566,419 L566,423 L570,426 L574,426 L577,423 L576,416 L578,415 L576,414 L577,411 L576,412 L574,411 L575,410 L575,407 L572,402 L576,399 L580,405 L579,407 L579,412 L582,415 L579,410 L579,407 L582,403 L581,402 L579,403 L577,398 L574,401 L571,402 L575,407 L575,409 L572,412 L568,413 L566,411 L564,411 L561,415 L554,415 L552,412 L552,409 L554,405 L553,403 L547,398 L548,397 L547,393 L545,394 L545,398 L537,404 L535,404 L532,400 L530,400 L531,405 L528,406 L527,408 L523,408 L520,410 L519,412 L517,409Z" fill="#69cad5" stroke="none" />
  <path d="M401,382 L402,383 L402,385 L403,386 L403,387 L404,388 L405,388 L406,389 L410,389 L411,388 L412,388 L413,387 L413,386 L414,385 L414,383 L417,380 L419,380 L418,380 L417,379 L418,378 L420,378 L419,377 L418,377 L418,378 L415,381 L414,380 L413,380 L410,377 L409,377 L408,376 L405,376 L404,377 L403,377 L403,378 L402,379 L402,381Z" fill="#69cad5" stroke="none" />
  <path d="M683,371 L681,373 L681,377 L684,380 L688,380 L689,379 L689,378 L691,376 L691,374 L688,371Z" fill="#69cad5" stroke="none" />
  <path d="M336,368 L333,371 L333,373 L334,374 L334,375 L335,376 L339,376 L340,375 L340,374 L341,373 L341,370 L340,369 L340,368Z" fill="#69cad5" stroke="none" />
  <path d="M292,368 L291,368 L288,371 L288,372 L286,374 L286,376 L287,377 L288,377 L290,379 L290,382 L291,382 L291,378 L293,376 L294,376 L295,375 L297,375 L298,374 L298,372 L295,372 L294,373 L293,373 L292,372Z" fill="#69cad5" stroke="none" />
  <path d="M704,359 L701,362 L702,363 L702,365 L700,367 L700,368 L702,370 L710,370 L712,368 L712,366 L713,365 L713,364 L712,363 L712,362 L711,361 L710,361 L708,359 L707,360 L706,359Z" fill="#69cad5" stroke="none" />
  <path d="M404,358 L396,358 L395,357 L396,358 L396,362 L395,363 L395,370 L394,371 L392,369 L391,366 L390,365 L388,365 L387,366 L386,366 L384,368 L384,369 L383,370 L383,372 L382,373 L380,373 L379,372 L373,372 L371,374 L371,375 L369,378 L369,383 L370,384 L370,385 L372,387 L373,387 L374,388 L379,388 L380,387 L381,387 L384,384 L385,384 L386,385 L386,386 L385,387 L385,389 L389,394 L391,394 L392,395 L395,395 L396,394 L397,394 L397,393 L399,391 L399,387 L398,386 L398,382 L400,379 L399,376 L397,374 L398,373 L399,373 L400,374 L401,374 L402,373 L404,373 L406,371 L406,370 L407,369 L407,367 L408,366 L409,366 L411,364 L411,363 L412,362 L408,362 L406,360 L405,360 L404,359Z" fill="#69cad5" stroke="none" />
  <path d="M659,346 L653,350 L652,356 L655,360 L662,364 L663,368 L659,374 L657,370 L653,368 L655,370 L654,371 L658,372 L659,380 L653,386 L652,384 L651,385 L648,384 L652,388 L651,396 L658,401 L659,409 L662,409 L666,406 L673,406 L680,412 L677,418 L679,417 L680,418 L680,422 L672,424 L671,426 L671,433 L672,433 L678,426 L685,425 L685,422 L691,416 L696,417 L699,422 L699,420 L696,417 L691,416 L685,421 L680,416 L679,411 L680,409 L687,411 L690,410 L694,406 L691,409 L685,411 L681,410 L676,405 L678,403 L678,400 L683,394 L689,394 L683,394 L677,401 L675,399 L674,390 L669,387 L664,387 L659,392 L657,399 L652,396 L652,387 L660,380 L668,385 L672,385 L678,380 L678,374 L676,369 L671,367 L669,363 L664,360 L667,356 L666,349 L664,347Z" fill="#69cad5" stroke="none" />
  <path d="M378,344 L377,345 L376,345 L375,346 L375,348 L374,349 L374,351 L375,352 L375,354 L377,356 L378,356 L379,357 L383,357 L384,356 L385,356 L386,355 L386,354 L387,353 L387,347 L384,344Z" fill="#69cad5" stroke="none" />
  <path d="M461,337 L460,338 L459,338 L457,340 L457,341 L456,342 L456,345 L457,346 L457,348 L459,350 L460,350 L461,351 L464,351 L467,348 L467,347 L468,346 L468,342 L467,341 L467,340 L466,340 L464,338 L462,338Z" fill="#69cad5" stroke="none" />
  <path d="M645,329 L647,332 L647,338 L646,340 L641,345 L636,345 L634,344 L631,340 L633,342 L633,344 L631,346 L631,348 L628,349 L630,349 L633,352 L635,358 L628,364 L628,370 L628,365 L632,362 L633,363 L633,366 L635,368 L635,370 L630,372 L628,376 L628,379 L630,382 L629,386 L628,387 L627,386 L627,384 L624,378 L626,376 L627,372 L627,373 L622,377 L622,380 L624,382 L622,384 L620,384 L621,387 L620,391 L622,392 L624,391 L629,391 L633,396 L632,399 L635,403 L638,401 L634,399 L634,395 L636,393 L636,389 L639,388 L641,385 L641,383 L637,383 L636,382 L639,376 L636,369 L634,367 L634,364 L635,363 L639,364 L644,360 L645,357 L647,359 L648,362 L647,364 L645,364 L647,365 L648,368 L651,368 L651,367 L648,366 L649,363 L647,358 L642,354 L643,351 L643,345 L642,344 L647,338 L647,332Z" fill="#69cad5" stroke="none" />
  <path d="M667,328 L666,329 L666,330 L664,332 L664,336 L668,340 L673,340 L674,339 L675,339 L676,338 L676,337 L677,336 L677,332 L676,331 L676,330 L675,329 L674,329 L673,328Z" fill="#69cad5" stroke="none" />
  <path d="M550,319 L539,320 L537,336 L516,331 L509,346 L517,355 L511,359 L504,345 L493,350 L491,344 L498,336 L494,330 L488,331 L480,354 L474,358 L468,352 L460,357 L466,367 L463,371 L450,371 L457,356 L446,353 L438,339 L429,340 L432,350 L419,353 L420,365 L429,367 L435,354 L443,357 L446,367 L435,370 L436,382 L429,393 L423,387 L413,391 L415,401 L410,407 L408,398 L402,397 L396,408 L389,405 L381,409 L387,421 L376,442 L381,447 L391,443 L394,452 L382,457 L380,450 L372,449 L366,456 L369,465 L381,466 L376,474 L392,492 L389,496 L381,492 L379,502 L397,507 L389,501 L390,495 L403,494 L397,487 L400,481 L392,477 L397,468 L403,467 L395,460 L399,450 L408,448 L405,438 L407,448 L399,440 L391,442 L397,427 L391,421 L396,414 L406,415 L411,410 L415,415 L411,410 L414,402 L432,391 L441,393 L445,386 L456,382 L450,377 L456,369 L463,372 L474,366 L479,378 L483,375 L476,376 L478,367 L482,373 L486,364 L507,358 L515,362 L517,370 L525,361 L521,364 L517,354 L523,338 L536,348 L539,341 L541,349 L537,350 L548,350 L550,355 L551,351 L559,353 L564,348 L566,358 L551,362 L549,357 L549,361 L558,359 L566,367 L576,360 L566,354 L570,343 L566,346 L559,337 L550,343 L539,341 L554,334 L555,325Z" fill="#69cad5" stroke="none" />
  <path d="M478,318 L477,318 L475,320 L473,320 L473,321 L471,323 L471,324 L470,325 L469,325 L469,326 L470,327 L470,330 L469,331 L471,333 L471,338 L470,339 L470,340 L471,341 L471,342 L472,341 L472,339 L474,337 L474,335 L475,334 L478,334 L478,333 L480,331 L480,330 L481,329 L481,324 L477,320 L478,319Z" fill="#69cad5" stroke="none" />
  <path d="M578,316 L575,321 L576,325 L575,326 L566,325 L562,331 L562,335 L567,340 L571,340 L576,336 L580,343 L577,344 L573,342 L580,345 L582,347 L581,357 L579,358 L578,362 L580,368 L583,372 L585,372 L589,367 L585,361 L586,356 L591,352 L593,352 L600,356 L600,361 L601,362 L594,369 L596,371 L600,369 L606,370 L608,373 L608,378 L609,378 L612,375 L609,371 L609,368 L613,362 L612,360 L613,358 L617,356 L618,352 L620,350 L626,348 L620,350 L616,357 L614,356 L612,352 L606,349 L595,352 L594,349 L597,347 L589,339 L591,336 L594,337 L595,335 L596,339 L599,342 L603,343 L599,342 L595,335 L596,331 L599,327 L595,334 L591,334 L585,328 L587,325 L586,317Z" fill="#69cad5" stroke="none" />
  <path d="M488,309 L483,314 L483,320 L484,321 L484,322 L486,324 L487,324 L488,325 L494,325 L495,326 L495,328 L496,328 L500,332 L501,332 L502,333 L503,332 L504,332 L505,333 L506,332 L508,332 L510,330 L510,329 L511,328 L511,323 L509,321 L509,320 L508,319 L508,318 L510,316 L510,314 L511,313 L510,312 L510,310 L508,308 L506,308 L505,307 L504,308 L502,308 L498,312 L496,310 L495,310 L494,309Z" fill="#69cad5" stroke="none" />
  <path d="M415,305 L413,307 L413,308 L412,309 L412,313 L413,314 L413,315 L414,315 L415,316 L416,316 L417,317 L420,317 L423,314 L423,312 L424,311 L424,310 L423,309 L423,307 L422,307 L420,305Z" fill="#69cad5" stroke="none" />
  <path d="M534,301 L532,303 L532,308 L534,310 L540,310 L541,309 L541,308 L542,307 L542,303 L540,301Z" fill="#69cad5" stroke="none" />
  <path d="M639,298 L636,301 L636,302 L634,304 L634,308 L636,310 L636,311 L637,312 L638,312 L639,313 L640,313 L641,314 L645,314 L650,309 L650,303 L649,302 L649,301 L647,299 L646,299 L645,298Z" fill="#69cad5" stroke="none" />
  <path d="M486,288 L484,290 L484,294 L485,295 L485,296 L486,297 L492,297 L494,295 L494,290 L492,288 L491,288 L490,287 L488,287 L487,288Z" fill="#69cad5" stroke="none" />
  <path d="M531,277 L528,280 L528,281 L527,282 L527,284 L528,285 L528,286 L530,288 L531,288 L532,289 L533,289 L534,288 L536,288 L537,287 L537,286 L538,285 L538,280 L536,278 L535,278 L534,277Z" fill="#69cad5" stroke="none" />
  <path d="M459,263 L455,263 L454,264 L453,264 L452,265 L452,266 L451,267 L451,271 L454,274 L455,274 L456,275 L457,275 L458,274 L460,274 L463,271 L463,267 L461,265 L461,264 L460,264Z" fill="#69cad5" stroke="none" />
  <path d="M578,257 L577,258 L576,258 L575,259 L575,261 L574,262 L574,265 L575,266 L575,267 L576,268 L578,268 L579,269 L580,269 L581,268 L583,268 L585,266 L585,260 L583,258 L581,258 L580,257Z" fill="#69cad5" stroke="none" />
</svg>